<svg width="90" height="90" viewBox="0 0 90 90" fill="none" xmlns="http://www.w3.org/2000/svg">
<rect width="53.4208" height="53.4208" transform="translate(8.14893 37.2943) rotate(-33.0101)" fill="#C60156"/>
<path d="M17.6978 62.6374L0 35.3957L27.2417 17.6978L54.4835 2.51977e-05L72.1813 27.2418L89.8791 54.4835L62.6374 72.1813L35.3956 89.8791L17.6978 62.6374ZM57.6359 58.9506C58.6013 57.9605 59.4666 56.7044 59.9918 55.5308C62.0862 50.8505 60.5008 45.4719 55.99 41.9541C54.9165 41.1169 53.8073 40.4363 51.8919 39.4393C51.6963 39.3375 51.3695 39.1668 51.1656 39.06C50.9617 38.9532 50.7794 38.8758 50.7605 38.8881C50.7417 38.9003 50.906 39.432 51.1257 40.0695C52.1445 43.0261 52.5071 44.3239 52.6869 45.6568C52.8787 47.0782 52.8727 48.051 52.6653 49.1892C52.5793 49.6605 52.5788 49.7798 52.6627 49.7429C52.7215 49.7171 53.1509 49.3432 53.6168 48.9121C54.0827 48.4811 54.54 48.0619 54.6329 47.9807C54.7258 47.8995 54.8541 47.7826 54.9181 47.721C54.982 47.6593 55.0979 47.5493 55.1755 47.4766C55.3792 47.2857 55.7147 46.9448 55.8083 46.8335C55.8851 46.7422 55.9052 46.7668 56.2438 47.3667C56.8442 48.4303 57.0974 49.1864 57.2192 50.2787C57.5235 53.0099 56.2307 55.7025 53.8904 57.212C50.6063 59.3303 46.5174 58.6916 43.8282 55.6405C43.4635 55.2267 43.226 54.8925 42.8574 54.2747C42.3192 53.3725 42.0855 52.8478 41.2626 50.6953C40.7262 49.292 40.3008 48.1873 39.6079 46.3983C39.4277 45.9328 39.2608 45.4964 39.2371 45.4285C39.0543 44.9043 37.9839 42.3796 37.6652 41.7209C37.5963 41.5784 37.5118 41.3949 37.4775 41.3132C37.4432 41.2314 37.3425 41.0245 37.2536 40.8533C37.1648 40.6821 37.005 40.3604 36.8984 40.1383C36.7918 39.9162 36.4761 39.3192 36.1967 38.8116L35.6888 37.8887L35.9424 37.4451C36.8223 35.9057 36.779 34.0088 35.8307 32.549C34.0259 29.771 29.9197 29.6671 28.041 32.3521C27.2668 33.4584 26.9769 34.8897 27.2531 36.2423C27.3563 36.7478 27.4057 36.8625 27.8065 37.5269C28.349 38.4264 28.5688 38.6519 29.3852 39.1471C29.9272 39.4759 30.1128 39.5482 30.7709 39.6874C31.3505 39.8099 31.688 39.835 32.1932 39.7931L32.8556 39.7382L33.0798 40.0844C33.2028 40.275 33.3834 40.6002 33.4806 40.8076C33.8771 41.6544 34.6334 43.2868 34.6931 43.4247C34.7282 43.506 34.8039 43.6781 34.8613 43.8073C34.9187 43.9364 35.076 44.3109 35.211 44.6393C35.346 44.9678 35.4913 45.3188 35.534 45.4192C35.7196 45.8561 35.9989 46.577 36.4336 47.7417C36.6898 48.4283 37.039 49.3591 37.2095 49.8101C37.38 50.2612 37.7547 51.2776 38.0421 52.0688C38.489 53.299 38.8178 54.1569 39.145 54.9462C39.4713 55.7336 40.0884 56.7925 40.7121 57.6356C42.304 59.7874 44.5615 61.2669 47.0872 61.8138C49.4965 62.3354 52.1662 62.0718 54.5174 61.0802C55.2114 60.7874 57.1071 59.4929 57.6359 58.9506ZM32.3528 37.049C31.192 37.3575 30.0317 36.5896 29.845 35.3895C29.7542 34.8053 29.9033 34.2562 30.2733 33.8125C30.6094 33.4095 30.8453 33.2497 31.2647 33.1408C32.71 32.7657 34.0051 33.9297 33.8067 35.4256C33.7378 35.9453 33.4701 36.3728 33.0078 36.7014C32.7761 36.866 32.51 37.0073 32.3528 37.049Z" fill="white"/>
</svg>
