<svg width="158" height="70" viewBox="0 0 158 70" fill="none" xmlns="http://www.w3.org/2000/svg">
<rect width="41.9658" height="41.9658" transform="translate(6.31445 27.3445) rotate(-29.9981)" fill="#C60156"/>
<path d="M12.7592 47.6198L0 25.5186L22.1013 12.7593L44.2026 0.000101913L56.9618 22.1014L69.721 44.2027L47.6197 56.9619L25.5185 69.7211L12.7592 47.6198ZM44.2423 46.3761C45.0405 45.6393 45.7711 44.6896 46.2316 43.7906C48.0678 40.2054 47.0461 35.9205 43.6527 32.9747C42.8451 32.2736 42.0031 31.6939 40.5416 30.8327C40.3923 30.7448 40.143 30.5974 39.9874 30.5051C39.8319 30.4129 39.6921 30.3447 39.6768 30.3536C39.6615 30.3624 39.7684 30.7863 39.9145 31.2955C40.5916 33.6569 40.8226 34.69 40.9086 35.7431C41.0004 36.866 40.9556 37.6289 40.7458 38.5133C40.659 38.8795 40.6536 38.9731 40.7209 38.9476C40.7682 38.9297 41.1204 38.6541 41.5037 38.3352C41.887 38.0163 42.263 37.7063 42.3392 37.6465C42.4155 37.5866 42.521 37.5002 42.5737 37.4545C42.6264 37.4087 42.7218 37.3272 42.7857 37.2734C42.9534 37.1321 43.2307 36.8784 43.3087 36.795C43.3727 36.7266 43.3875 36.7467 43.6284 37.2313C44.0554 38.0904 44.2229 38.6941 44.2733 39.5559C44.3993 41.7111 43.274 43.7701 41.3758 44.8576C38.712 46.3838 35.5307 45.7141 33.547 43.2095C33.278 42.8698 33.1054 42.5978 32.8418 42.0979C32.4568 41.368 32.2951 40.9467 31.7384 39.2241C31.3755 38.1011 31.0874 37.2169 30.6177 35.7849C30.4955 35.4122 30.3826 35.063 30.3669 35.0088C30.2451 34.59 29.5096 32.5652 29.2867 32.0353C29.2385 31.9207 29.1799 31.7733 29.1563 31.7077C29.1328 31.6422 29.0623 31.4757 28.9997 31.3377C28.9371 31.1998 28.825 30.9408 28.7505 30.7622C28.6761 30.5835 28.453 30.1022 28.2548 29.6924L27.8945 28.9475L28.1117 28.6099C28.8655 27.4386 28.9099 25.9487 28.2262 24.7644C26.925 22.5106 23.708 22.2596 22.1234 24.2883C21.4704 25.1243 21.1839 26.2352 21.3447 27.3077C21.4048 27.7085 21.4388 27.8005 21.7258 28.3383C22.1143 29.0663 22.2774 29.2523 22.8974 29.6745C23.309 29.9547 23.4516 30.0192 23.9622 30.1555C24.4118 30.2755 24.6756 30.3091 25.0736 30.2971L25.5955 30.2814L25.7571 30.5623C25.8457 30.7168 25.974 30.9795 26.0417 31.1462C26.3178 31.8268 26.8437 33.1386 26.8848 33.2493C26.909 33.3145 26.9613 33.4526 27.001 33.5563C27.0407 33.66 27.1487 33.9603 27.241 34.2235C27.3333 34.4868 27.4328 34.7681 27.4622 34.8486C27.5898 35.1991 27.7791 35.7761 28.072 36.7077C28.2447 37.257 28.4802 38.0016 28.5954 38.3624C28.7105 38.7233 28.9625 39.5361 29.1553 40.1687C29.4551 41.1522 29.6776 41.8388 29.9017 42.4715C30.1252 43.1026 30.5656 43.9588 31.0201 44.646C32.1801 46.3997 33.89 47.6536 35.8488 48.1868C37.7173 48.6955 39.8225 48.5989 41.7079 47.918C42.2645 47.717 43.8051 46.7798 44.2423 46.3761ZM25.3121 28.1511C24.3887 28.3451 23.5102 27.6948 23.4133 26.7456C23.3661 26.2836 23.5057 25.859 23.8143 25.5262C24.0946 25.2239 24.2863 25.1083 24.6198 25.0402C25.7691 24.8056 26.737 25.7721 26.5197 26.9375C26.4442 27.3423 26.2165 27.6667 25.8403 27.9053C25.6517 28.0249 25.4371 28.1248 25.3121 28.1511Z" fill="white"/>
<path d="M148.059 48.3684C146.03 48.3684 144.269 47.9176 142.777 47.016C141.284 46.0906 140.13 44.8569 139.314 43.3146C138.498 41.7724 138.089 40.0641 138.089 38.1897C138.089 36.2442 138.509 34.5121 139.349 32.9936C140.212 31.4752 141.366 30.277 142.812 29.3991C144.258 28.5212 145.89 28.0823 147.709 28.0823C149.225 28.0823 150.566 28.3314 151.732 28.8297C152.898 29.3042 153.877 29.9804 154.67 30.8583C155.486 31.7361 156.104 32.7564 156.524 33.919C156.944 35.0578 157.154 36.3035 157.154 37.6559C157.154 38.0355 157.131 38.4151 157.084 38.7948C157.061 39.1507 157.002 39.4591 156.909 39.7201H142.602V35.8052H153.936L151.452 37.6559C151.685 36.6357 151.674 35.734 151.417 34.9511C151.161 34.1444 150.706 33.5156 150.053 33.0648C149.423 32.5903 148.642 32.353 147.709 32.353C146.8 32.353 146.018 32.5784 145.365 33.0292C144.712 33.48 144.223 34.1444 143.896 35.0223C143.57 35.9001 143.441 36.9678 143.511 38.2253C143.418 39.3167 143.546 40.2777 143.896 41.1081C144.246 41.9385 144.782 42.591 145.505 43.0655C146.228 43.5163 147.103 43.7417 148.129 43.7417C149.062 43.7417 149.855 43.5519 150.508 43.1723C151.184 42.7927 151.709 42.2707 152.082 41.6063L156.279 43.6349C155.906 44.584 155.312 45.4144 154.495 46.1262C153.702 46.838 152.758 47.3956 151.662 47.7989C150.566 48.1786 149.365 48.3684 148.059 48.3684Z" fill="#C60156"/>
<path d="M131.572 48.3684C129.543 48.3684 127.782 47.9176 126.29 47.016C124.797 46.0906 123.643 44.8569 122.826 43.3146C122.01 41.7724 121.602 40.0641 121.602 38.1897C121.602 36.2442 122.022 34.5121 122.861 32.9936C123.724 31.4752 124.879 30.277 126.325 29.3991C127.77 28.5212 129.403 28.0823 131.222 28.0823C132.738 28.0823 134.079 28.3314 135.245 28.8297C136.411 29.3042 137.39 29.9804 138.183 30.8583C138.999 31.7361 139.617 32.7564 140.037 33.919C140.457 35.0578 140.667 36.3035 140.667 37.6559C140.667 38.0355 140.643 38.4151 140.597 38.7948C140.573 39.1507 140.515 39.4591 140.422 39.7201H126.115V35.8052H137.448L134.965 37.6559C135.198 36.6357 135.186 35.734 134.93 34.9511C134.673 34.1444 134.218 33.5156 133.566 33.0648C132.936 32.5903 132.155 32.353 131.222 32.353C130.312 32.353 129.531 32.5784 128.878 33.0292C128.225 33.48 127.735 34.1444 127.409 35.0223C127.082 35.9001 126.954 36.9678 127.024 38.2253C126.931 39.3167 127.059 40.2777 127.409 41.1081C127.759 41.9385 128.295 42.591 129.018 43.0655C129.741 43.5163 130.615 43.7417 131.642 43.7417C132.574 43.7417 133.367 43.5519 134.02 43.1723C134.697 42.7927 135.221 42.2707 135.594 41.6063L139.792 43.6349C139.419 44.584 138.824 45.4144 138.008 46.1262C137.215 46.838 136.271 47.3956 135.175 47.7989C134.079 48.1786 132.878 48.3684 131.572 48.3684Z" fill="#C60156"/>
<path d="M107.114 47.9413V21H112.361V38.261L110.403 37.6204L118.833 28.5094H125.304L118.378 36.3391L125.269 47.9413H119.323L113.551 38.083L116.594 37.3L110.752 43.7774L112.361 40.6811V47.9413H107.114Z" fill="#C60156"/>
<path d="M98.706 48.3684C96.817 48.3684 95.0913 47.9294 93.5288 47.0515C91.9897 46.1737 90.7537 44.9755 89.8209 43.457C88.9114 41.9148 88.4567 40.1709 88.4567 38.2253C88.4567 36.256 88.9114 34.5121 89.8209 32.9936C90.7537 31.4752 91.9897 30.277 93.5288 29.3991C95.0913 28.5212 96.817 28.0823 98.706 28.0823C100.595 28.0823 102.309 28.5212 103.848 29.3991C105.387 30.277 106.612 31.4752 107.521 32.9936C108.454 34.5121 108.92 36.256 108.92 38.2253C108.92 40.1709 108.454 41.9148 107.521 43.457C106.612 44.9755 105.387 46.1737 103.848 47.0515C102.309 47.9294 100.595 48.3684 98.706 48.3684ZM98.706 43.5638C99.6621 43.5638 100.49 43.3384 101.19 42.8876C101.913 42.4368 102.472 41.808 102.869 41.0013C103.288 40.1946 103.498 39.2693 103.498 38.2253C103.498 37.1814 103.288 36.2679 102.869 35.4849C102.472 34.6782 101.913 34.0495 101.19 33.5987C100.49 33.1241 99.6621 32.8869 98.706 32.8869C97.7498 32.8869 96.9103 33.1241 96.1874 33.5987C95.4644 34.0495 94.8931 34.6782 94.4733 35.4849C94.0769 36.2679 93.8786 37.1814 93.8786 38.2253C93.8786 39.2693 94.0769 40.1946 94.4733 41.0013C94.8931 41.808 95.4644 42.4368 96.1874 42.8876C96.9103 43.3384 97.7498 43.5638 98.706 43.5638Z" fill="#C60156"/>
<path d="M80.8184 48.3684C78.9294 48.3684 77.2037 47.9294 75.6413 47.0515C74.1021 46.1737 72.8661 44.9755 71.9333 43.457C71.0238 41.9148 70.5691 40.1709 70.5691 38.2253C70.5691 36.256 71.0238 34.5121 71.9333 32.9936C72.8661 31.4752 74.1021 30.277 75.6413 29.3991C77.2037 28.5212 78.9294 28.0823 80.8184 28.0823C82.7073 28.0823 84.4214 28.5212 85.9605 29.3991C87.4997 30.277 88.724 31.4752 89.6335 32.9936C90.5663 34.5121 91.0327 36.256 91.0327 38.2253C91.0327 40.1709 90.5663 41.9148 89.6335 43.457C88.724 44.9755 87.4997 46.1737 85.9605 47.0515C84.4214 47.9294 82.7073 48.3684 80.8184 48.3684ZM80.8184 43.5638C81.7745 43.5638 82.6024 43.3384 83.302 42.8876C84.0249 42.4368 84.5846 41.808 84.9811 41.0013C85.4008 40.1946 85.6107 39.2693 85.6107 38.2253C85.6107 37.1814 85.4008 36.2679 84.9811 35.4849C84.5846 34.6782 84.0249 34.0495 83.302 33.5987C82.6024 33.1241 81.7745 32.8869 80.8184 32.8869C79.8623 32.8869 79.0227 33.1241 78.2998 33.5987C77.5769 34.0495 77.0055 34.6782 76.5857 35.4849C76.1893 36.2679 75.9911 37.1814 75.9911 38.2253C75.9911 39.2693 76.1893 40.1946 76.5857 41.0013C77.0055 41.808 77.5769 42.4368 78.2998 42.8876C79.0227 43.3384 79.8623 43.5638 80.8184 43.5638Z" fill="#C60156"/>
<path d="M51 47.9413V21.427H56.422V32.8869H66.5663V21.427H71.9883V47.9413H66.5663V37.6915H56.422V47.9413H51Z" fill="#C60156"/>
</svg>
