<svg width="24" height="24" viewBox="0 0 24 24" fill="none" xmlns="http://www.w3.org/2000/svg">
  <path d="M9.00654 4.66068C9.35303 3.97334 10.3344 3.97334 10.6808 4.66068L11.8957 7.07069C12.2178 7.70967 12.6819 8.26641 13.2525 8.69826L15.5123 10.4087C16.0079 10.7838 16.0079 11.5286 15.5123 11.9038L13.2525 13.6142C12.6819 14.0461 12.2178 14.6028 11.8957 15.2418L10.6808 17.6518C10.3344 18.3391 9.35303 18.3391 9.00654 17.6518L7.79166 15.2418C7.46955 14.6028 7.00545 14.0461 6.43489 13.6142L4.17504 11.9038C3.67944 11.5286 3.67944 10.7838 4.17504 10.4087L6.43489 8.69826C7.00545 8.26641 7.46955 7.70967 7.79166 7.07069L9.00654 4.66068ZM17.737 15.916C17.9981 15.3875 18.7518 15.3875 19.0128 15.916C19.2526 16.4012 19.5999 16.8252 20.0283 17.156L20.1425 17.2442C20.5762 17.579 20.5762 18.2335 20.1425 18.5683L20.0283 18.6565C19.5999 18.9872 19.2526 19.4113 19.0128 19.8965C18.7518 20.4249 17.9981 20.4249 17.737 19.8965C17.4972 19.4113 17.15 18.9872 16.7216 18.6565L16.6074 18.5683C16.1737 18.2335 16.1737 17.579 16.6074 17.2442L16.7216 17.156C17.15 16.8252 17.4972 16.4012 17.737 15.916Z" stroke="white" stroke-width="1.8" stroke-linejoin="round"/>
</svg>